PathFileType	4	(X/Y/Z)	RBDS08\RBDS08runT45.trc
DataRate	CameraRate	NumFrames	NumMarkers	Units	OrigDataRate	OrigDataStartFrame	OrigNumFrames
150.000000	150.000000	6	33	mm	150.000000	1687	4500
Frame#	Time	L.ASIS			L.Heel.Bottom			L.Heel.Lateral			L.Heel.Top			L.Iliac.Crest			L.MT1			L.MT5			L.PSIS			L.Shank.Bottom.Lateral			L.Shank.Bottom.Medial			L.Shank.Top.Lateral			L.Shank.Top.Medial			L.Thigh.Bottom.Lateral			L.Thigh.Bottom.Medial			L.Thigh.Top.Lateral			L.Thigh.Top.Medial			R.ASIS			R.ASY			R.Heel.Bottom			R.Heel.Lateral			R.Heel.Top			R.Iliac.Crest			R.MT1			R.MT5			R.PSIS			R.Shank.Bottom.Lateral			R.Shank.Bottom.Medial			R.Shank.Top.Lateral			R.Shank.Top.Medial			R.Thigh.Bottom.Lateral			R.Thigh.Bottom.Medial			R.Thigh.Top.Lateral			R.Thigh.Top.Medial			
		X1	Y1	Z1	X2	Y2	Z2	X3	Y3	Z3	X4	Y4	Z4	X5	Y5	Z5	X6	Y6	Z6	X7	Y7	Z7	X8	Y8	Z8	X9	Y9	Z9	X10	Y10	Z10	X11	Y11	Z11	X12	Y12	Z12	X13	Y13	Z13	X14	Y14	Z14	X15	Y15	Z15	X16	Y16	Z16	X17	Y17	Z17	X18	Y18	Z18	X19	Y19	Z19	X20	Y20	Z20	X21	Y21	Z21	X22	Y22	Z22	X23	Y23	Z23	X24	Y24	Z24	X25	Y25	Z25	X26	Y26	Z26	X27	Y27	Z27	X28	Y28	Z28	X29	Y29	Z29	X30	Y30	Z30	X31	Y31	Z31	X32	Y32	Z32	X33	Y33	Z33	

1688	11.24666666666667	2175.755547466513	921.5979411292817	932.0861758722725	1738.908468887224	652.3597625958405	1026.822972213622	1739.392983830667	622.5064786257652	977.7367791295219	1774.280725593222	615.9594584729325	1028.447052026464	2131.580080125716	997.0930441862434	890.9097767780961	1644.302360489384	440.0714824368828	1031.75168180265	1650.832894763713	496.697002508552	935.182742340095	2002.836861340223	971.2664066347476	969.881443560711	1824.461787204411	544.2058258590786	959.9490079558851	1836.719519344394	575.8995965330658	999.3462572354889	1902.894978394245	528.132874526445	945.1148511892843	1918.892391089019	557.420641125902	986.966650144294	2125.961766808043	538.4255527590053	890.5439767214135	2071.09158362876	527.8297720349306	937.2489532048096	2096.607625699875	644.5192950728824	880.337906339362	2045.78964678902	634.8328304295314	927.1841635774246	2150.603712802402	963.5518915656704	1159.879036874323	269307835.6037897	-239739654.4365856	-24801023.31532027	2021.997741744788	34.53299063235685	1076.412762810057	2052.193807594996	49.7980877317797	1115.69112001146	2039.706438975675	81.19730801932363	1069.810031965595	2086.293688985999	1014.878155708328	1181.374193251645	2247.95391102323	43.69020810700764	1026.70662409272	2218.880665067711	41.18591025173202	1133.149160028408	1988.362477827922	990.4595399483223	1065.297973693868	2123.027533270781	164.5663390687233	1124.96762163788	2090.750384502786	181.1805898151788	1082.84194063066	2136.351385155711	243.2072768307578	1141.743576225066	2108.666562247454	257.4348874375421	1097.564850133098	2201.065242514193	578.2482905729717	1189.771771694238	2147.821373280915	555.552769255312	1145.559737941428	2143.13419361188	670.7958419684081	1210.500721069517	2092.454961373482	648.2143474430031	1170.238667529944	
1689	11.25333333333333	2173.47549424241	919.5346791587039	933.5087557908956	1755.767509120994	649.3010500533925	1024.195631376087	1758.159411671966	619.1786811138188	975.4490588959991	1792.113064777056	613.9468229784618	1026.865103029843	2128.01434560074	994.7767203761204	891.202030420078	1667.208109750746	434.6078445843963	1030.163936502794	1674.135948696933	490.3426032351946	933.1357727775783	2000.509014256022	970.5438142236626	969.5721203467505	1845.608372226653	542.2135026465257	958.9056010556129	1857.350485888167	574.177269210297	998.2119753148987	1924.202576420022	526.9754651830126	944.2782581380166	1939.734729977718	556.4864211809709	986.1684688487048	2141.408199722881	540.274563591311	889.3308126103664	2086.728598617906	525.9626174632946	935.1178109787528	2106.430295604231	644.5615642179953	880.0552786375724	2055.436792949249	631.3051728643454	925.5269936963598	2145.999093291866	962.4802642527641	1162.309474431597	270096277.8240384	-240442818.492465	-24874180.67519525	1992.417851431175	34.65617949692663	1076.547966916339	2022.560574820752	50.07670132006722	1115.859582704844	2009.878789012632	81.37496076108346	1070.121350471037	2080.175310705649	1012.349431119505	1181.486855518699	2217.761036789262	44.4948212077236	1026.684078285057	2188.901027614311	42.05672668081149	1133.031074488707	1985.36493086064	989.7283235635341	1064.128794853783	2096.806831343234	164.7168987411584	1125.102514685677	2065.089885437897	182.5546585650872	1083.077840804451	2113.132521978257	242.8827950733532	1141.956139991779	2086.022675992636	258.1492587591646	1097.724830265772	2188.549058493901	574.3121670820146	1190.015076761738	2135.331726300412	553.2489524683884	1144.820423553524	2132.554009024271	668.1828439546845	1210.344026480256	2081.964520029348	647.0816489737934	1169.186688149885	
1690	11.26	2171.306243105088	918.6557929124796	934.6628327881253	1771.053497110942	644.9742608462707	1020.953713039612	1775.601565924551	614.4692314681841	972.688477527211	1808.661348946215	611.0137222870594	1024.723947360122	2124.128664621488	993.6400901128255	891.4664986179114	1690.311561765971	427.5243712652606	1028.853432438013	1697.216921087617	481.9953620068609	931.1779333251417	1998.348806796403	970.7361184674909	969.4938884821553	1866.025629227285	539.6341253015639	957.6865244475898	1876.949291444141	572.0848399334458	996.7684140802004	1944.863795749005	525.9171157600638	943.3233727343528	1959.635525961774	555.9106800644614	985.1469710256005	2157.1075100498	544.104876885193	888.1336419537964	2102.825285569476	526.0262279978072	932.9796963695535	2116.402928407208	646.2032323327039	879.6799172772498	2065.378189350513	629.2900409875868	923.6646319338886	2141.746033065682	961.7844055565104	1164.435321582727	270886257.3964716	-241147356.0954747	-24947481.74691516	1962.910299679417	34.57383578000866	1076.746285599338	1993.00172463729	50.14259294191268	1116.104715730126	1980.012289328467	81.38012413006328	1070.603063777156	2074.423204982524	1010.795742199086	1181.682277723052	2187.574431391424	45.42495395962502	1026.751786375635	2158.946984424982	42.82865550391527	1132.948602241279	1982.779572094272	989.7667468383986	1063.385033890312	2070.108298775773	164.5806679097844	1125.42724059838	2039.013780872373	183.4817822942439	1083.461874310251	2089.098696216966	242.1853482637011	1142.366711583622	2062.60175936587	258.3678899949838	1098.071072909834	2174.849666559571	570.4239009024316	1190.393044961401	2121.513147129958	551.0945732549712	1144.441317986742	2121.3506293907	665.8660061056895	1210.207636511219	2070.694917198987	646.3767474608445	1168.344260663888	
1691	11.26666666666667	2169.348902668577	918.9336187495865	935.5451605566196	1784.752681061034	639.3023246426602	1017.278095290802	1791.660805252734	608.3913680516825	969.5858150813384	1823.862894515761	607.1087376111003	1022.136887844019	2120.20718790064	993.6151904899257	891.7076132012872	1713.609292485672	418.9319167600516	1027.775636069929	1720.034717426212	471.8749892108667	929.3174680213095	1996.420110713534	971.7551256435698	969.6360634443805	1885.555962192019	536.5059132109274	956.3198481523746	1895.364658502198	569.630068680474	995.053365362229	1964.688377456725	524.9763328553731	942.2633891388878	1978.408031964234	555.6858231012844	983.9099840193546	2172.829634279899	549.8430401437854	886.9937896046814	2119.160864081414	528.0242016543406	930.9174789926509	2126.391090417648	649.3955842961072	879.2200617032275	2075.518379169572	628.8116033047543	921.6807562753997	2138.001712740552	961.395818411979	1166.187256784231	271677775.8184236	-241853268.5857937	-25020926.67149105	1933.407993972646	34.41688255421985	1076.977095590608	1963.463496820907	50.10279243578894	1116.399129963058	1950.114476194025	81.33827375080072	1071.193790363543	2069.380396541276	1010.223686300601	1181.966758815946	2157.447902130195	46.31856048283795	1026.935762117139	2129.011384101272	43.39313554295257	1132.924454441585	1980.654669798649	990.5367343524086	1063.067811372357	2043.000542589668	164.2593241215407	1125.905433088297	2012.570426689178	184.0798283672869	1083.960105477209	2064.331798454236	241.2482119967474	1142.940564071816	2038.477324475055	258.234557525805	1098.57323152371	2160.101168764701	566.756074965772	1190.910356109352	2106.50797447457	549.2324410760921	1144.451967068001	2109.640475900281	663.9569048840217	1210.111191900446	2058.762854735397	646.1852045307725	1167.752724724394	
1692	11.27333333333333	2167.687568486272	920.2895798657165	936.1832778002173	1796.948401551071	632.1946989361689	1013.365715003554	1806.367900560821	600.9506544899906	966.2846412351849	1837.732624042941	602.1576229469516	1019.238595513606	2116.548299385142	994.607564321365	891.9360384044202	1737.148167317039	408.9636142885805	1026.8823622434	1742.611164312099	460.2228339988501	927.5626047753052	1994.776623074759	973.5015184028414	969.9625746786136	1904.104962060453	532.8466065432359	954.8432469157561	1912.511423744324	566.7845133636358	993.1202945322696	1983.536212632491	524.1338736751854	941.1191774785837	1995.918352919933	555.748760565908	982.4787057278538	2188.351819976981	557.3488002190522	885.9502278102185	2135.504755507896	531.8941875176525	929.0026935377102	2136.274262625609	654.039886697892	878.6851870365936	2085.7624960203	629.8496244855999	919.6575468252463	2134.882675579262	961.2769645028471	1167.529581250798	272470834.5872284	-242560557.3036015	-25094515.58993391	1903.844894073595	34.33872909850285	1077.230497899718	1933.896739836865	50.09128307860165	1116.733173765166	1920.182256242306	81.39665430446802	1071.85215143297	2065.342267441405	1010.609320063817	1182.331550267433	2127.399745597847	47.08831257422641	1027.238638300814	2099.079030959911	43.71482572261986	1132.9646748695	1979.012849766154	991.9705588897771	1063.140418448218	2015.546327947174	163.9215427366929	1126.504772024834	1985.791744630063	184.5390164120677	1084.550210260888	2038.920929953877	240.2701263789621	1143.645909190411	2013.722575172741	257.9618157303806	1099.205733783241	2144.446285066863	563.4915275817702	1191.543275583881	2090.484248534298	547.8356097434779	1144.819907744088	2097.533803875549	662.5656914530227	1210.055002099048	2046.297467423965	646.6049822593312	1167.406084604219	
1693	11.28	2166.386011978717	922.6070594002548	936.6279126893305	1807.820242772341	623.5610723142744	1009.409202360653	1819.845286885111	592.1495200639341	962.928227493426	1850.366759752011	596.0733581920132	1016.171230749697	2113.426829820935	996.5132056599454	892.1637662526514	1761.014484445988	397.7761914293183	1026.127974896304	1765.026296973983	447.290356024754	925.9219465640732	1993.461386194717	975.8748132645096	970.4163503774039	1921.64894586594	528.6545057352703	953.3013369358209	1928.378334139083	563.4878942146303	991.0342613465295	2001.327766360168	523.3359418343762	939.9183540379427	2012.096286779155	555.9871616527792	980.8876398903997	2203.473182175456	566.4285423054871	885.0357059710167	2151.634650594722	537.5142750477897	927.2924272794498	2145.952345466092	659.9976139178888	878.0851061716004	2096.020940042589	632.3426839465528	917.6692321345512	2132.460442655852	961.4209226453592	1168.461019048074	273265435.2002203	-243269223.5890771	-25168248.64325471	1874.171871119554	34.51401463894573	1077.516019430912	1904.273253702	50.26441890607463	1117.113048013498	1890.22087936198	81.72142440564538	1072.55616637579	2062.531592121326	1011.902219756324	1182.750114415508	2097.426405423934	47.70473384735655	1027.640591197916	2069.140474841244	43.81696192958334	1133.060943123549	1977.85622248627	993.978183498352	1063.536651262673	1987.809451851761	163.7763839113801	1127.195162708731	1958.704492898262	185.0921535036505	1085.217217934255	2012.962443785439	239.4862190036648	1144.452833132996	1988.411803531399	257.7999906817598	1099.945621696964	2128.025129230203	560.8090834708821	1192.24440965757	2073.620433317459	547.0933788308774	1145.461728432423	2085.130755414304	661.7935031758169	1210.022577736276	2033.433605145586	647.740375040552	1167.258677889886	
